<?xml version="1.0" encoding="UTF-8" standalone="no"?>
<!-- Created with Inkscape (http://www.inkscape.org/) -->

<svg
   width="1920"
   height="1080"
   viewBox="0 0 507.99998 285.75"
   version="1.1"
   id="svg5"
   inkscape:version="1.1 (c68e22c387, 2021-05-23)"
   sodipodi:docname="map.svg"
   xmlns:inkscape="http://www.inkscape.org/namespaces/inkscape"
   xmlns:sodipodi="http://sodipodi.sourceforge.net/DTD/sodipodi-0.dtd"
   xmlns:xlink="http://www.w3.org/1999/xlink"
   xmlns="http://www.w3.org/2000/svg"
   xmlns:svg="http://www.w3.org/2000/svg"
   xmlns:rdf="http://www.w3.org/1999/02/22-rdf-syntax-ns#"
   xmlns:cc="http://creativecommons.org/ns#"
   xmlns:dc="http://purl.org/dc/elements/1.1/">
  <title
     id="title1982">Intento de Mapa's Map</title>
  <sodipodi:namedview
     id="namedview7"
     pagecolor="#ffffff"
     bordercolor="#cccccc"
     borderopacity="1"
     inkscape:pageshadow="0"
     inkscape:pageopacity="1"
     inkscape:pagecheckerboard="0"
     inkscape:document-units="mm"
     showgrid="false"
     units="px"
     inkscape:zoom="0.23162177"
     inkscape:cx="-123.04543"
     inkscape:cy="49.649909"
     inkscape:window-width="1366"
     inkscape:window-height="705"
     inkscape:window-x="-8"
     inkscape:window-y="-8"
     inkscape:window-maximized="1"
     inkscape:current-layer="layer1"
     width="1920px" />
  <defs
     id="defs2">
    <linearGradient
       inkscape:collect="always"
       id="linearGradient1193">
      <stop
         style="stop-color:#00ff00;stop-opacity:0;"
         offset="0"
         id="stop1191" />
      <stop
         style="stop-color:#00ff00;stop-opacity:1;"
         offset="1"
         id="stop1189" />
    </linearGradient>
    <linearGradient
       inkscape:collect="always"
       xlink:href="#linearGradient1193"
       id="linearGradient1195"
       x1="111.08942"
       y1="-27.415386"
       x2="114.80192"
       y2="177.05769"
       gradientUnits="userSpaceOnUse"
       spreadMethod="repeat"
       gradientTransform="matrix(2.4358974,0,0,1.8275862,-3.7991452,-2.1896551)" />
  </defs>
  <g
     inkscape:label="Capa 1"
     inkscape:groupmode="layer"
     id="layer1">
    <path
       style="fill:url(#linearGradient1195);fill-opacity:1;stroke:none;stroke-width:0.616809px;stroke-linecap:butt;stroke-linejoin:miter;stroke-opacity:1"
       d="m 14.135378,6.3158538 c 0,0 3.955046,-4.4686101 9.707844,-3.5440699 5.752795,0.9245413 4.853922,0.7704502 6.112343,0.7704502 1.258426,0 8.988742,-2.1572606 14.741535,5.3931507 5.752796,7.5504112 12.404467,5.2390632 20.314561,17.4121752 7.91009,12.173113 12.40446,1.386809 28.224647,7.08814 15.820182,5.701332 13.303332,0.616361 26.247132,11.094484 12.94378,10.478118 30.20216,25.270769 66.87623,27.119844 36.67408,1.849082 23.01119,-1.23272 47.46056,13.559924 24.44938,14.792648 23.01118,24.038048 80.53911,23.421688 57.52795,-0.61636 75.50546,-2.46544 115.77501,-27.119848 40.26955,-24.654409 93.4829,42.528848 69.03355,73.963218 -24.44939,31.43436 -9.34829,107.86301 0,123.27201 9.34827,15.40904 -110.74133,-38.21433 -156.76369,-4.31451 -46.02233,33.89979 -173.30292,-42.52886 -173.30292,-42.52886 0,0 -71.90994,-2.4654 -125.842387,0.61637 -53.932454,3.0818 -45.303261,-88.75585 -20.853879,-94.3031 24.449378,-5.54724 59.685245,-16.64172 96.359306,1.23273 36.67407,17.87444 53.21336,-35.74889 -5.03369,-44.994295 C 55.483593,85.209952 43.978004,59.939186 33.91061,47.611979 23.843219,35.284782 11.618531,21.108498 4.4275347,20.492139 -2.7634576,19.875778 14.135378,6.3158538 14.135378,6.3158538 Z"
       id="path92" />
  </g>
  <metadata
     id="metadata1980">
    <rdf:RDF>
      <cc:Work
         rdf:about="">
        <dc:title>Intento de Mapa's Map</dc:title>
      </cc:Work>
    </rdf:RDF>
  </metadata>
</svg>
